<svg width="557" height="188" viewBox="0 0 557 188" fill="none" xmlns="http://www.w3.org/2000/svg">
<path d="M54.9092 46.7477C43.6355 44.5852 1.80088 44.6547 7.09464 87.221C7.09464 87.221 7.15421 76.6875 21.4994 69.6225C35.8445 62.5574 48.865 79.2347 66.9781 75.7348C85.0912 72.2348 98.3133 59.732 96.6269 34.9151C97.2366 61.3039 66.1828 48.9102 54.9092 46.7477Z" fill="black"/>
<path d="M42.4133 93.6648C35.2944 91.1806 8.10294 87.2216 7.46877 115.389C7.46877 115.389 8.51567 108.549 18.5136 105.332C28.5115 102.114 35.3762 114.197 47.4814 113.656C59.5866 113.116 69.3752 106.257 70.6546 89.9688C68.5251 107.175 49.5321 96.1491 42.4133 93.6648Z" fill="black"/>
<path d="M20.4276 150.999C27.5599 150.999 33.3418 145.217 33.3418 138.085C33.3418 130.953 27.5599 125.171 20.4276 125.171C13.2953 125.171 7.51341 130.953 7.51341 138.085C7.51341 145.217 13.2953 150.999 20.4276 150.999Z" fill="black"/>
<path d="M143.521 151V45.25H211.321V57.7H159.121V91.6H207.871V104.05H159.121V151H143.521ZM227.279 151V40.6H242.429V151H227.279ZM291.482 152.35C282.382 152.35 275.532 149.9 270.932 145C266.432 140 264.182 132.35 264.182 122.05V75.4H279.332V121.75C279.332 128.05 280.632 132.7 283.232 135.7C285.832 138.7 289.782 140.2 295.082 140.2C301.082 140.2 305.932 138.2 309.632 134.2C313.332 130.2 315.182 124.9 315.182 118.3V75.4H330.332V151H315.632V134.8H317.582C315.482 140.4 312.132 144.75 307.532 147.85C302.932 150.85 297.582 152.35 291.482 152.35ZM373.073 151L344.423 75.4H360.173L382.523 138.4H378.623L401.573 75.4H413.273L436.073 138.4H432.323L454.673 75.4H469.823L441.023 151H427.223L403.523 86.8H410.573L387.173 151H373.073ZM484.16 185.05L480.56 172.75C485.26 171.75 489.16 170.55 492.26 169.15C495.46 167.75 498.11 165.9 500.21 163.6C502.31 161.4 504.11 158.55 505.61 155.05L509.36 146.2L509.06 152.35L476.21 75.4H492.41L517.91 138.4H513.86L539.36 75.4H554.96L520.31 156.4C518.11 161.4 515.76 165.6 513.26 169C510.76 172.4 508.06 175.15 505.16 177.25C502.26 179.35 499.06 181 495.56 182.2C492.06 183.4 488.26 184.35 484.16 185.05Z" fill="black"/>
</svg>
