<svg width="200" height="200" viewBox="0 0 200 200" fill="none" xmlns="http://www.w3.org/2000/svg">
<rect width="200" height="200" rx="50" fill="white"/>
<g clip-path="url(#clip0_220_33)">
<path d="M102.734 48.5888C91.5224 45.8514 52.3406 44.2217 52.8418 83.342C52.8572 84.5434 55.3574 84.9168 56.0372 83.9262C58.1242 80.8852 61.807 77.2641 68.2203 73.3719C86.0411 62.5566 97.671 85.5104 116.753 82.26C134.673 79.2076 149.05 66.8321 147.113 41.8162C147.029 40.7238 145.419 40.6016 145.015 41.6202C136.702 62.5887 114.011 51.3422 102.734 48.5888Z" fill="#34D399"/>
<path d="M94.9572 93.0525C86.1922 90.2994 55.5813 86.9937 52.8452 116.781C52.7353 117.977 55.6283 118.726 56.4585 117.857C58.3909 115.836 61.3089 113.598 65.6975 111.31C80.7011 103.488 88.9134 122.691 104.541 121.063C118.984 119.558 131.121 110.558 131.263 90.8622C131.27 89.7665 129.65 89.5254 129.141 90.4955C121.1 105.813 103.786 95.8254 94.9572 93.0525Z" fill="#34D399"/>
<path d="M67.7114 159.078C75.9957 159.078 82.7114 152.362 82.7114 144.078C82.7114 135.794 75.9957 129.078 67.7114 129.078C59.4272 129.078 52.7114 135.794 52.7114 144.078C52.7114 152.362 59.4272 159.078 67.7114 159.078Z" fill="#34D399"/>
</g>
<defs>
<clipPath id="clip0_220_33">
<rect width="94.5771" height="189" fill="white" transform="translate(52.7114 5.5)"/>
</clipPath>
</defs>
</svg>
