<svg width="527" height="189" viewBox="0 0 527 189" fill="none" xmlns="http://www.w3.org/2000/svg">
<g clip-path="url(#clip0_113_161)">
<path d="M50.0228 43.0888C38.8109 40.3514 -0.370824 38.7217 0.130337 77.842C0.145727 79.0434 2.64595 79.4168 3.32577 78.4262C5.41279 75.3852 9.09561 71.7641 15.5089 67.8719C33.3297 57.0566 44.9596 80.0104 64.0419 76.76C81.9617 73.7076 96.3382 61.3321 94.402 36.3162C94.3174 35.2238 92.7079 35.1016 92.304 36.1202C83.9907 57.0887 61.2995 45.8422 50.0228 43.0888Z" fill="#34D399"/>
<path d="M42.2458 87.5525C33.4808 84.7994 2.86986 81.4937 0.133809 111.281C0.0239193 112.477 2.91683 113.226 3.74704 112.357C5.67943 110.336 8.5975 108.098 12.9861 105.81C27.9897 97.9878 36.202 117.191 51.8294 115.563C66.2721 114.058 78.4098 105.058 78.5512 85.3622C78.559 84.2665 76.9387 84.0254 76.4294 84.9955C68.3888 100.313 51.0741 90.3254 42.2458 87.5525Z" fill="#34D399"/>
<path d="M15 153.578C23.2843 153.578 30 146.862 30 138.578C30 130.294 23.2843 123.578 15 123.578C6.71573 123.578 0 130.294 0 138.578C0 146.862 6.71573 153.578 15 153.578Z" fill="#34D399"/>
<path d="M139.902 151V89.2508H125.328V75.1282H145.16L139.902 79.9359V68.3673C139.902 58.9522 142.306 51.8408 147.113 47.033C152.021 42.2253 159.183 39.8215 168.598 39.8215C170.801 39.8215 173.105 39.9717 175.509 40.2722C178.013 40.5727 180.166 41.1236 181.969 41.9248V56.6485C180.667 56.1477 179.115 55.747 177.312 55.4466C175.509 55.1461 173.756 54.9958 172.053 54.9958C169.449 54.9958 167.095 55.4966 164.992 56.4982C162.989 57.4999 161.386 59.0523 160.184 61.1557C159.082 63.1589 158.532 65.8633 158.532 69.2688V78.4335L155.827 75.1282H178.514V89.2508H158.682V151H139.902ZM190.082 151V40.4224H208.862V151H190.082ZM256.478 152.502C247.163 152.502 240.202 149.948 235.595 144.84C230.987 139.732 228.684 131.919 228.684 121.402V75.1282H247.464V121.252C247.464 126.861 248.616 131.018 250.919 133.722C253.223 136.326 256.729 137.629 261.436 137.629C266.745 137.629 271.052 135.826 274.357 132.22C277.763 128.614 279.465 123.856 279.465 117.947V75.1282H298.245V151H279.916V135.525H282.019C279.816 140.934 276.46 145.141 271.953 148.145C267.546 151.05 262.388 152.502 256.478 152.502ZM339.667 151L310.07 75.1282H329.451L350.785 134.173H346.879L368.514 75.1282H381.885L403.37 134.173H399.914L421.098 75.1282H439.428L409.83 151H393.304L370.617 90.603H378.58L356.344 151H339.667ZM453.581 185.105L449.224 170.231C453.931 169.229 457.888 168.077 461.093 166.775C464.298 165.473 466.952 163.771 469.056 161.667C471.159 159.564 472.912 156.859 474.314 153.554L478.07 144.69L477.619 152.052L444.566 75.1282H464.548L488.287 134.323H483.93L507.818 75.1282H526.748L492.193 155.207C489.889 160.615 487.385 165.073 484.681 168.578C481.976 172.184 479.072 175.039 475.967 177.142C472.862 179.346 469.456 181.048 465.75 182.25C462.044 183.452 457.988 184.404 453.581 185.105Z" fill="#1F2937"/>
</g>
<defs>
<clipPath id="clip0_113_161">
<rect width="526.577" height="189" fill="white"/>
</clipPath>
</defs>
</svg>
