<svg width="642" height="125" viewBox="0 0 642 125" fill="none" xmlns="http://www.w3.org/2000/svg">
<path d="M21.7656 56.339L58.8167 118.652C60.417 121.344 64.5525 120.092 64.3914 116.965L62.6136 82.4752C62.5189 80.6383 64.0843 79.1496 65.9141 79.3363L84.913 81.2749C86.4985 81.4367 87.9338 80.3306 88.1812 78.7561L98.6215 12.3174C98.8845 10.644 97.7108 9.08496 96.03 8.87486L57.1961 4.02061C55.347 3.78948 53.7368 5.28235 53.8276 7.14362L55.5918 43.3103C55.6649 44.8095 54.6188 46.132 53.1431 46.4061L23.7965 51.8562C21.7445 52.2372 20.699 54.5451 21.7656 56.339Z" fill="#D7F615"/>
<path d="M158.554 122.422V6.80124H177.257V122.422H158.554ZM139 57.8105V40.8074H196.811V57.8105H139Z" fill="#F5F5FE"/>
<path d="M243.897 124.123C236.983 124.123 230.805 122.592 225.364 119.532C220.036 116.471 215.842 112.277 212.781 106.949C209.834 101.508 208.361 95.274 208.361 88.246V40.8074H227.064V87.3959C227.064 91.3633 227.687 94.7639 228.934 97.5977C230.295 100.318 232.222 102.415 234.715 103.889C237.323 105.362 240.383 106.099 243.897 106.099C249.338 106.099 253.476 104.512 256.309 101.338C259.257 98.0511 260.73 93.4036 260.73 87.3959V40.8074H279.434V88.246C279.434 95.3873 277.903 101.678 274.843 107.119C271.896 112.447 267.758 116.641 262.43 119.702C257.103 122.649 250.925 124.123 243.897 124.123Z" fill="#F5F5FE"/>
<path d="M354.179 122.422V75.3237C354.179 69.8827 352.422 65.4052 348.908 61.8912C345.508 58.3773 341.087 56.6203 335.646 56.6203C332.019 56.6203 328.788 57.4138 325.954 59.0007C323.12 60.5877 320.91 62.7981 319.323 65.6319C317.736 68.4658 316.943 71.6964 316.943 75.3237L309.631 71.2429C309.631 65.0085 310.992 59.5108 313.712 54.7499C316.433 49.8757 320.173 46.0784 324.934 43.3579C329.808 40.524 335.249 39.1071 341.257 39.1071C347.378 39.1071 352.819 40.6941 357.58 43.868C362.341 46.9285 366.082 50.9526 368.802 55.9402C371.523 60.8144 372.883 65.9153 372.883 71.2429V122.422H354.179ZM298.239 122.422V40.8074H316.943V122.422H298.239Z" fill="#F5F5FE"/>
<path d="M426.065 124.123C418.697 124.123 412.009 122.252 406.002 118.512C400.107 114.771 395.403 109.727 391.889 103.379C388.488 96.9176 386.788 89.7196 386.788 81.7849C386.788 73.7367 388.488 66.5387 391.889 60.1909C395.403 53.7298 400.107 48.6288 406.002 44.8881C412.009 41.0341 418.697 39.1071 426.065 39.1071C432.3 39.1071 437.797 40.4674 442.558 43.1878C447.432 45.795 451.286 49.4223 454.12 54.0698C456.954 58.7173 458.371 63.9883 458.371 69.8827V93.347C458.371 99.2414 456.954 104.512 454.12 109.16C451.4 113.807 447.602 117.491 442.728 120.212C437.854 122.819 432.3 124.123 426.065 124.123ZM429.126 106.439C433.773 106.439 437.797 105.419 441.198 103.379C444.712 101.225 447.432 98.2778 449.359 94.5372C451.286 90.7965 452.25 86.489 452.25 81.6148C452.25 76.7406 451.286 72.4332 449.359 68.6925C447.432 64.9518 444.712 62.0613 441.198 60.0209C437.797 57.8672 433.773 56.7903 429.126 56.7903C424.592 56.7903 420.568 57.8672 417.054 60.0209C413.653 62.0613 410.932 64.9518 408.892 68.6925C406.965 72.4332 406.002 76.7406 406.002 81.6148C406.002 86.489 406.965 90.7965 408.892 94.5372C410.932 98.2778 413.653 101.225 417.054 103.379C420.568 105.419 424.592 106.439 429.126 106.439ZM469.763 122.422H451.06V100.488L454.29 80.5946L451.06 60.8711V0H469.763V122.422Z" fill="#F5F5FE"/>
<path d="M528.437 124.123C520.276 124.123 512.908 122.309 506.333 118.682C499.872 114.941 494.714 109.84 490.86 103.379C487.12 96.9176 485.249 89.6629 485.249 81.6148C485.249 73.5667 487.12 66.3687 490.86 60.0209C494.601 53.5597 499.645 48.4588 505.993 44.7181C512.454 40.9774 519.595 39.1071 527.417 39.1071C535.012 39.1071 541.7 40.8641 547.481 44.3781C553.375 47.892 557.966 52.7096 561.253 58.8307C564.654 64.9518 566.354 71.9231 566.354 79.7445C566.354 81.1047 566.241 82.5217 566.014 83.9953C565.901 85.3555 565.674 86.8858 565.334 88.5861H498.342V73.2833H555.642L548.671 79.4044C548.444 74.4168 547.481 70.2228 545.78 66.8221C544.08 63.4215 541.643 60.8144 538.469 59.0007C535.408 57.187 531.611 56.2802 527.077 56.2802C522.316 56.2802 518.179 57.3004 514.665 59.3408C511.151 61.3811 508.43 64.2717 506.503 68.0124C504.576 71.6397 503.613 76.0038 503.613 81.1047C503.613 86.2057 504.633 90.6831 506.673 94.5372C508.714 98.3912 511.604 101.395 515.345 103.549C519.085 105.589 523.393 106.609 528.267 106.609C532.461 106.609 536.315 105.873 539.829 104.399C543.456 102.925 546.517 100.772 549.011 97.9378L560.913 110.01C556.946 114.657 552.128 118.171 546.46 120.552C540.793 122.932 534.785 124.123 528.437 124.123Z" fill="#F5F5FE"/>
<path d="M581.347 122.422V40.8074H600.051V122.422H581.347ZM600.051 77.024L593.589 73.7934C593.589 63.4782 595.857 55.1467 600.391 48.7989C605.038 42.3377 612.009 39.1071 621.305 39.1071C625.385 39.1071 629.069 39.8439 632.357 41.3175C635.644 42.7911 638.704 45.1715 641.538 48.4588L629.296 61.0411C627.822 59.4541 626.179 58.3206 624.365 57.6405C622.551 56.9603 620.454 56.6203 618.074 56.6203C612.86 56.6203 608.552 58.2639 605.152 61.5512C601.751 64.8384 600.051 69.996 600.051 77.024Z" fill="#F5F5FE"/>
</svg>
